<?xml version="1.0" encoding="UTF-8"?>
<svg version="1.1" xmlns="http://www.w3.org/2000/svg" width="210" height="189">
<path d="M0 0 C8.64525711 6.41784147 16.53470094 14.60410282 20 25 C16.16746871 25.20505665 12.33636234 25.32820828 8.5 25.4375 C7.42234375 25.49615234 6.3446875 25.55480469 5.234375 25.61523438 C-0.5373901 25.73841229 -4.11290098 25.55109791 -8.52734375 21.6171875 C-9.10991943 20.99827637 -9.69249512 20.37936523 -10.29272461 19.74169922 C-15.82370101 14.09920163 -24.54715164 11.95338173 -32.1875 11.625 C-43.24957811 11.8681226 -52.24035467 16.15756716 -59.90234375 23.9296875 C-66.25238358 31.25975461 -69.86907378 41.05838923 -69.31640625 50.828125 C-67.84603947 60.92101303 -63.70568168 70.28274786 -55.75 76.875 C-46.78606966 83.24134248 -36.93571747 86.15205409 -26 84.375 C-16.22479182 82.09668376 -7.67363741 77.22691486 -2.3125 68.625 C-1.73113281 67.70976563 -1.14976562 66.79453125 -0.55078125 65.8515625 C1.33252096 62.58722048 1.33252096 62.58722048 3 57 C-10.53 57 -24.06 57 -38 57 C-38 50.4 -38 43.8 -38 37 C-17.54 37 2.92 37 24 37 C27.5122822 51.04912881 24.12404805 67.1745213 16.75390625 79.4765625 C7.38643748 92.95403428 -5.32257418 101.96063048 -21.5 105.3125 C-36.99524935 107.58926274 -53.00324566 105.14078957 -66 96 C-73.34878609 90.20196582 -77.68285424 84.97571865 -83 77 C-83.33 87.23 -83.66 97.46 -84 108 C-90.27 108 -96.54 108 -103 108 C-103 70.05 -103 32.1 -103 -7 C-96.73 -7 -90.46 -7 -84 -7 C-83.67 1.91 -83.34 10.82 -83 20 C-81.02 17.03 -79.04 14.06 -77 11 C-58.20315438 -11.92802048 -24.5701663 -15.60666449 0 0 Z " fill="#FFFFFF" transform="translate(150,47)"/>
<path d="M0 0 C9.57 0 19.14 0 29 0 C29 4.29 29 8.58 29 13 C24.71 13 20.42 13 16 13 C16 49.3 16 85.6 16 123 C20.29 123 24.58 123 29 123 C29 127.29 29 131.58 29 136 C19.43 136 9.86 136 0 136 C0 91.12 0 46.24 0 0 Z " fill="#C6D301" transform="translate(11,28)"/>
<path d="M0 0 C9.24 0 18.48 0 28 0 C28 44.88 28 89.76 28 136 C18.76 136 9.52 136 0 136 C0 131.71 0 127.42 0 123 C4.29 123 8.58 123 13 123 C13 86.7 13 50.4 13 13 C8.71 13 4.42 13 0 13 C0 8.71 0 4.42 0 0 Z " fill="#C6D301" transform="translate(170,29)"/>
</svg>
